<?xml version="1.0" encoding="UTF-8"?>
<svg version="1.1" xmlns="http://www.w3.org/2000/svg" width="300" height="300">
<path d="M0 0 C0.97129349 -0.00428513 1.94258698 -0.00857025 2.9433136 -0.01298523 C4.98620836 -0.01869104 7.02912342 -0.01925671 9.07202148 -0.01489258 C12.15059229 -0.01174451 15.22818895 -0.03519868 18.30664062 -0.06054688 C29.42639413 -0.09698244 39.68864278 0.41109957 50.48828125 3.30078125 C51.33318115 3.52515869 52.17808105 3.74953613 53.04858398 3.98071289 C55.17873035 4.59220601 57.26887826 5.26451184 59.36328125 5.98828125 C60.10956787 6.24391846 60.85585449 6.49955566 61.62475586 6.76293945 C76.43832508 11.99171639 89.63763228 19.30917552 102.48828125 28.30078125 C103.37644531 28.92210938 104.26460937 29.5434375 105.1796875 30.18359375 C119.32568421 40.85891445 131.31986415 54.19152802 140.48828125 69.30078125 C141.0905957 70.28062988 141.0905957 70.28062988 141.70507812 71.28027344 C150.47439705 85.69919411 156.779451 100.83076254 160.48828125 117.30078125 C160.73945206 118.37759659 160.73945206 118.37759659 160.99569702 119.47616577 C162.34900144 125.64988503 162.79539882 131.50317007 162.7890625 137.8125 C162.79334763 138.78379349 162.79763275 139.75508698 162.80204773 140.7558136 C162.80775354 142.79870836 162.80831921 144.84162342 162.80395508 146.88452148 C162.80080701 149.96309229 162.82426118 153.04068895 162.84960938 156.11914062 C162.88604494 167.23889413 162.37796293 177.50114278 159.48828125 188.30078125 C159.26390381 189.14568115 159.03952637 189.99058105 158.80834961 190.86108398 C158.19685649 192.99123035 157.52455066 195.08137826 156.80078125 197.17578125 C156.54514404 197.92206787 156.28950684 198.66835449 156.02612305 199.43725586 C150.79734611 214.25082508 143.47988698 227.45013228 134.48828125 240.30078125 C133.86695313 241.18894531 133.245625 242.07710937 132.60546875 242.9921875 C121.93014805 257.13818421 108.59753448 269.13236415 93.48828125 278.30078125 C92.50843262 278.9030957 92.50843262 278.9030957 91.50878906 279.51757812 C77.08986839 288.28689705 61.95829996 294.591951 45.48828125 298.30078125 C44.77040436 298.46822845 44.05252747 298.63567566 43.31289673 298.80819702 C37.13917747 300.16150144 31.28589243 300.60789882 24.9765625 300.6015625 C24.00526901 300.60584763 23.03397552 300.61013275 22.0332489 300.61454773 C19.99035414 300.62025354 17.94743908 300.62081921 15.90454102 300.61645508 C12.82597021 300.61330701 9.74837355 300.63676118 6.66992188 300.66210938 C-4.44983163 300.69854494 -14.71208028 300.19046293 -25.51171875 297.30078125 C-26.7790686 296.96421509 -26.7790686 296.96421509 -28.07202148 296.62084961 C-30.20216785 296.00935649 -32.29231576 295.33705066 -34.38671875 294.61328125 C-35.13300537 294.35764404 -35.87929199 294.10200684 -36.64819336 293.83862305 C-51.46176258 288.60984611 -64.66106978 281.29238698 -77.51171875 272.30078125 C-78.39988281 271.67945313 -79.28804687 271.058125 -80.203125 270.41796875 C-94.34912171 259.74264805 -106.34330165 246.41003448 -115.51171875 231.30078125 C-116.1140332 230.32093262 -116.1140332 230.32093262 -116.72851562 229.32128906 C-125.49783455 214.90236839 -131.8028885 199.77079996 -135.51171875 183.30078125 C-135.67916595 182.58290436 -135.84661316 181.86502747 -136.01913452 181.12539673 C-137.37243894 174.95167747 -137.81883632 169.09839243 -137.8125 162.7890625 C-137.81678513 161.81776901 -137.82107025 160.84647552 -137.82548523 159.8457489 C-137.83119104 157.80285414 -137.83175671 155.75993908 -137.82739258 153.71704102 C-137.82424451 150.63847021 -137.84769868 147.56087355 -137.87304688 144.48242188 C-137.90948244 133.36266837 -137.40140043 123.10041972 -134.51171875 112.30078125 C-134.28734131 111.45588135 -134.06296387 110.61098145 -133.83178711 109.74047852 C-133.22029399 107.61033215 -132.54798816 105.52018424 -131.82421875 103.42578125 C-131.56858154 102.67949463 -131.31294434 101.93320801 -131.04956055 101.16430664 C-125.82078361 86.35073742 -118.50332448 73.15143022 -109.51171875 60.30078125 C-108.89039062 59.41261719 -108.2690625 58.52445313 -107.62890625 57.609375 C-96.95358555 43.46337829 -83.62097198 31.46919835 -68.51171875 22.30078125 C-67.53187012 21.6984668 -67.53187012 21.6984668 -66.53222656 21.08398438 C-52.11330589 12.31466545 -36.98173746 6.0096115 -20.51171875 2.30078125 C-19.79384186 2.13333405 -19.07596497 1.96588684 -18.33633423 1.79336548 C-12.16261497 0.44006106 -6.30932993 -0.00633632 0 0 Z " fill="#007CED" transform="translate(137.51171875,-0.30078125)"/>
<path d="M0 0 C67.35229759 0 67.35229759 0 81 11 C89.53264148 19.56232023 93.33905759 27.966903 93.4375 39.9375 C93.23339877 52.36726521 90.86142285 60.88172432 82 70 C73.29672111 78.40825249 61.04351118 82.18275999 49.171875 82.09765625 C48.17534912 82.09614563 48.17534912 82.09614563 47.15869141 82.09460449 C44.68910992 82.08939262 42.21955313 82.07543139 39.75 82.0625 C34.2225 82.041875 28.695 82.02125 23 82 C23 100.15 23 118.3 23 137 C15.41 137 7.82 137 0 137 C0 91.79 0 46.58 0 0 Z " fill="#FAFCFE" transform="translate(167,81)"/>
<path d="M0 0 C7.59 0 15.18 0 23 0 C23.00410889 2.81499023 23.00821777 5.62998047 23.01245117 8.53027344 C23.02970463 17.86620851 23.07429966 27.20187194 23.13209057 36.53763962 C23.16627507 42.1939288 23.19145728 47.84995032 23.19555664 53.50634766 C23.19985787 58.97255642 23.22847179 64.43816225 23.27343178 69.90418243 C23.28634857 71.98196135 23.29073527 74.05981263 23.28615379 76.13762665 C22.93842619 93.72344211 22.93842619 93.72344211 30.75505066 109.00604248 C37.55905349 115.54337121 45.06620534 116.60112196 54.07324219 116.54858398 C61.34669607 116.30578903 67.19472097 114.55663154 73 110 C79.79931389 102.65045262 80.14172688 95.17534185 80.20532227 85.59814453 C80.21522186 84.67067917 80.22512146 83.74321381 80.23532104 82.78764343 C80.26679272 79.73605868 80.2916366 76.68445839 80.31640625 73.6328125 C80.33698816 71.51146043 80.35798496 69.39011234 80.37937927 67.26876831 C80.43447215 61.69575233 80.48393766 56.12270012 80.53222656 50.54962158 C80.5825351 44.85856924 80.63817228 39.16756926 80.69335938 33.4765625 C80.80078454 22.31775148 80.9017714 11.15889577 81 0 C88.92 0 96.84 0 105 0 C105.06808286 11.60585902 105.12299214 23.21158294 105.15543652 34.81759739 C105.17101703 40.20814565 105.19211438 45.59854886 105.22631836 50.98901367 C105.25918565 56.2021163 105.27691009 61.41508039 105.28463173 66.62827873 C105.29012654 68.60594802 105.30085477 70.58361071 105.31719017 72.56122017 C105.47100257 91.97426769 104.28766491 109.48482036 90.25 124.4375 C77.51057276 136.27383059 62.68071036 138.83510855 45.8203125 138.34765625 C32.83578246 137.63871616 20.80405855 131.91614713 11.8828125 122.453125 C0.27138379 107.32454154 -0.43783653 90.55065612 -0.29296875 72.265625 C-0.28736379 70.17527574 -0.28309795 68.0849225 -0.28010559 65.99456787 C-0.26872768 60.52999727 -0.23932217 55.0656712 -0.20599365 49.60119629 C-0.17513965 44.01020616 -0.16156768 38.41917598 -0.14648438 32.828125 C-0.11444488 21.88529272 -0.06173555 10.94270508 0 0 Z " fill="#F8FBFE" transform="translate(40,81)"/>
<path d="M0 0 C4.599375 -0.061875 9.19875 -0.12375 13.9375 -0.1875 C15.36956787 -0.21481201 16.80163574 -0.24212402 18.27709961 -0.27026367 C26.76223013 -0.32530428 34.31986033 0.08827229 41.375 5.1875 C45.77947847 9.90658407 47.12956198 14.54033607 47.4375 20.9375 C47.20569704 27.48845317 45.10892147 33.39719633 40.25 37.9375 C32.15650514 43.07375635 23.26561089 42.24206329 14 42.125 C9.38 42.08375 4.76 42.0425 0 42 C0 28.14 0 14.28 0 0 Z " fill="#027DED" transform="translate(190,101)"/>
</svg>
